<?xml version="1.0" standalone="no"?><!DOCTYPE svg PUBLIC "-//W3C//DTD SVG 1.1//EN" "http://www.w3.org/Graphics/SVG/1.1/DTD/svg11.dtd"><svg t="1603157031881" class="icon" viewBox="0 0 1024 1024" version="1.1" xmlns="http://www.w3.org/2000/svg" p-id="2945" width="32" height="32" xmlns:xlink="http://www.w3.org/1999/xlink"><defs><style type="text/css"></style></defs><path d="M489.679568 912.121081c-6.835892-14.419027 26.914595-240.985946 41.347459-247.060757l442.769297-202.765838c13.657946-6.074811 3.459459 209.075892 10.281514 223.522595 6.835892 14.432865 0.761081 33.404541-13.657946 39.493189L527.650595 928.06227c-13.657946 6.84973-31.882378-0.761081-37.971027-15.941189z" fill="#AEF6CB" p-id="2946"></path><path d="M42.994162 695.351351c6.060973-14.432865 14.280649-204.191135 27.96627-198.116324l447.308109 193.660541c13.671784 6.074811 20.507676 204.191135 14.432864 219.385081-6.074811 14.419027-23.552 22.790919-37.209946 16.716108L48.169514 733.322378c-13.685622-6.074811-11.264-23.538162-5.175352-37.971027z m4.580324-1.522162" fill="#AEF6CB" p-id="2947"></path><path d="M164.642595 502.230486l216.437621 104.060541c5.31373 1.508324 9.119135 3.77773 15.193946 3.030487 9.119135-0.761081 18.985514-5.31373 23.538162-14.419028 8.358054-14.432865 2.283243-30.374054-11.38854-36.448864l-215.676541-103.285622c-15.955027-8.358054-32.657297-2.283243-39.493189 10.641297-8.358054 14.405189-2.283243 30.346378 11.388541 36.421189z" fill="#25DC70" p-id="2948"></path><path d="M986.361081 757.676973v-471.87027c0-11.014919-7.970595-21.088865-18.833297-25.28173-0.31827-0.152216-0.581189-0.401297-0.913298-0.553514L531.926486 59.931676c-7.555459-4.787892-16.785297-6.282378-24.783567-2.726054L59.087568 247.821838c-11.042595 4.898595-17.491027 18.210595-16.411676 30.761513-0.110703 0.885622-0.304432 1.757405-0.304433 2.656865v489.831784c0 0.207568 0.069189 0.401297 0.06919 0.608865-0.055351 11.776 6.33773 23.676541 16.646919 28.256865l447.308108 193.66054c8.939243 3.985297 19.456 1.702054 27.398919-4.331243l431.145513-197.452108c3.791568-1.093189 7.251027-2.87827 10.295351-5.244541 0.179892-0.124541 0.332108-0.276757 0.512-0.415135a28.450595 28.450595 0 0 0 6.254703-6.960432 27.371243 27.371243 0 0 0 2.43546-4.704865c0.498162-1.21773 0.913297-2.449297 1.259243-3.736216l0.083027-0.332108c1.037838-4.123676 1.273081-8.468757 0.581189-12.744649zM487.410162 919.330595L101.597405 752.294054V331.609946l385.812757 191.515676v396.204973z m29.446919-448.539676c-0.927135-0.691892-1.840432-1.425297-2.87827-1.978811L136.620973 281.489297 517.369081 119.517405 882.300541 287.757838 516.857081 470.790919zM927.135135 742.566054L546.636108 916.812108V523.859027L927.135135 333.284324v409.28173z" fill="#25DC70" p-id="2949"></path></svg>