<?xml version="1.0" standalone="no"?><!DOCTYPE svg PUBLIC "-//W3C//DTD SVG 1.1//EN" "http://www.w3.org/Graphics/SVG/1.1/DTD/svg11.dtd"><svg t="1603191538000" class="icon" viewBox="0 0 1024 1024" version="1.1" xmlns="http://www.w3.org/2000/svg" p-id="4090" xmlns:xlink="http://www.w3.org/1999/xlink" width="32" height="32"><defs><style type="text/css"></style></defs><path d="M994.56 215.68c46.08 46.08 32 105.6 0 137.6l-183.68 183.68c-42.24 42.24-100.48 37.12-143.36-5.76L490.24 353.28c-42.24-42.24-42.24-95.36 0-137.6L673.92 32c42.24-42.24 95.36-42.24 137.6 0l183.04 183.68zM291.84 568.96H97.28C37.76 568.96 0 614.4 0 673.92v251.52c0 60.16 37.76 97.28 97.28 97.28h259.2c45.44 0 97.28-37.12 97.28-97.28v-259.2c0-60.16-37.76-97.28-97.28-97.28H291.84z" fill="#17C2AB" p-id="4091"></path><path d="M624 568.96c-60.16 0-104.96 37.76-104.96 97.28v259.2c0 67.84 40.32 97.28 104.96 97.28h251.52c60.16 0 97.28-37.76 97.28-97.28v-259.2c0-59.52-37.12-97.28-97.28-97.28H624zM97.28 50.56C37.12 50.56 0 88.32 0 147.84v259.2C0 467.2 37.76 504.32 97.28 504.32h259.2c60.16 0 97.28-37.76 97.28-97.28V147.84c0-59.52-37.12-97.28-97.28-97.28H97.28z" fill="#17C2AB" p-id="4092"></path></svg>